<svg width="21" height="22" viewBox="0 0 21 22" fill="none" xmlns="http://www.w3.org/2000/svg">
<path d="M8.25 6.875C8.25 6.57833 8.33798 6.28832 8.5028 6.04165C8.66762 5.79497 8.90189 5.60271 9.17598 5.48918C9.45007 5.37565 9.75167 5.34594 10.0426 5.40382C10.3336 5.4617 10.6009 5.60456 10.8107 5.81434C11.0204 6.02412 11.1633 6.29139 11.2212 6.58236C11.2791 6.87334 11.2494 7.17494 11.1358 7.44903C11.0223 7.72311 10.83 7.95738 10.5834 8.1222C10.3367 8.28703 10.0467 8.375 9.75 8.375C9.35218 8.375 8.97065 8.21696 8.68934 7.93566C8.40804 7.65436 8.25 7.27282 8.25 6.875ZM20.25 11C20.25 13.0025 19.6562 14.9601 18.5436 16.6251C17.4311 18.2902 15.8498 19.5879 13.9997 20.3543C12.1496 21.1206 10.1138 21.3211 8.14971 20.9305C6.18566 20.5398 4.38156 19.5755 2.96555 18.1595C1.54954 16.7435 0.585229 14.9393 0.194554 12.9753C-0.196122 11.0112 0.00438702 8.97543 0.770724 7.12533C1.53706 5.27523 2.83481 3.69392 4.49986 2.58137C6.1649 1.46882 8.12247 0.875 10.125 0.875C12.8094 0.877978 15.383 1.94567 17.2812 3.84383C19.1793 5.74199 20.247 8.3156 20.25 11ZM18 11C18 9.44247 17.5381 7.91992 16.6728 6.62488C15.8075 5.32985 14.5776 4.32049 13.1386 3.72445C11.6997 3.12841 10.1163 2.97246 8.58867 3.27632C7.06107 3.58017 5.65788 4.3302 4.55654 5.43153C3.4552 6.53287 2.70518 7.93606 2.40132 9.46366C2.09746 10.9913 2.25341 12.5747 2.84945 14.0136C3.44549 15.4526 4.45485 16.6825 5.74989 17.5478C7.04493 18.4131 8.56748 18.875 10.125 18.875C12.2129 18.8728 14.2146 18.0424 15.691 16.566C17.1674 15.0896 17.9978 13.0879 18 11ZM11.25 14.4387V11.375C11.25 10.8777 11.0525 10.4008 10.7008 10.0492C10.3492 9.69754 9.87228 9.5 9.375 9.5C9.10933 9.4996 8.85208 9.59325 8.64883 9.76435C8.44558 9.93544 8.30944 10.173 8.26452 10.4348C8.21961 10.6967 8.26881 10.966 8.40343 11.195C8.53804 11.4241 8.74938 11.5981 9 11.6863V14.75C9 15.2473 9.19755 15.7242 9.54918 16.0758C9.90081 16.4275 10.3777 16.625 10.875 16.625C11.1407 16.6254 11.3979 16.5318 11.6012 16.3607C11.8044 16.1896 11.9406 15.952 11.9855 15.6902C12.0304 15.4283 11.9812 15.159 11.8466 14.93C11.712 14.7009 11.5006 14.5269 11.25 14.4387Z" fill="black"/>
</svg>
