<svg width="22" height="12" viewBox="0 0 22 12" fill="none" xmlns="http://www.w3.org/2000/svg">
<path d="M5.75 4C5.21957 4 4.71086 4.21071 4.33579 4.58579C3.96071 4.96086 3.75 5.46957 3.75 6C3.75 6.53043 3.96071 7.03914 4.33579 7.41421C4.71086 7.78929 5.21957 8 5.75 8C6.28043 8 6.78914 7.78929 7.16421 7.41421C7.53929 7.03914 7.75 6.53043 7.75 6C7.75 5.46957 7.53929 4.96086 7.16421 4.58579C6.78914 4.21071 6.28043 4 5.75 4Z" fill="black"/>
<path fill-rule="evenodd" clip-rule="evenodd" d="M5.74975 0.25C4.73435 0.250044 3.73707 0.518974 2.85931 1.02944C1.98155 1.53992 1.25463 2.27372 0.752444 3.15625C0.250261 4.03877 -0.00926548 5.03854 0.000252694 6.0539C0.00977087 7.06926 0.287994 8.06398 0.806633 8.93694C1.32527 9.8099 2.06583 10.5299 2.953 11.0239C3.84018 11.5178 4.84232 11.768 5.85755 11.749C6.87277 11.73 7.86486 11.4425 8.73294 10.9157C9.60102 10.389 10.3141 9.64174 10.7998 8.75H13.9998V11C13.9998 11.414 14.3358 11.75 14.7498 11.75H18.2498C18.4487 11.75 18.6394 11.671 18.7801 11.5303C18.9207 11.3897 18.9998 11.1989 18.9998 11V8.75H20.7498C20.9487 8.75 21.1394 8.67098 21.2801 8.53033C21.4207 8.38968 21.4998 8.19891 21.4998 8V5C21.4998 4.53587 21.3154 4.09075 20.9872 3.76256C20.659 3.43437 20.2139 3.25 19.7498 3.25H10.7998C10.3055 2.34213 9.57553 1.58432 8.68681 1.05637C7.79809 0.528414 6.78346 0.249849 5.74975 0.25ZM1.49975 6C1.4988 5.02286 1.83458 4.07523 2.45056 3.3167C3.06653 2.55816 3.92508 2.03505 4.88162 1.83545C5.83816 1.63585 6.83426 1.77196 7.70219 2.22086C8.57012 2.66976 9.25685 3.40402 9.64675 4.3C9.7051 4.43369 9.80116 4.54746 9.92318 4.62739C10.0452 4.70731 10.1879 4.74992 10.3338 4.75H19.7498C19.8161 4.75 19.8796 4.77634 19.9265 4.82322C19.9734 4.87011 19.9998 4.9337 19.9998 5V7.25H18.2498C18.0508 7.25 17.8601 7.32902 17.7194 7.46967C17.5788 7.61032 17.4998 7.80109 17.4998 8V10.25H15.4998V8C15.4998 7.80109 15.4207 7.61032 15.2801 7.46967C15.1394 7.32902 14.9487 7.25 14.7498 7.25H10.3338C10.1879 7.25008 10.0452 7.29269 9.92318 7.37261C9.80116 7.45254 9.7051 7.56631 9.64675 7.7C9.25608 8.595 8.56917 9.3282 7.70152 9.77633C6.83386 10.2245 5.83838 10.3602 4.88242 10.1607C3.92646 9.96125 3.06833 9.43872 2.4523 8.681C1.83627 7.92327 1.4999 6.97655 1.49975 6Z" fill="black"/>
</svg>
