<svg width="430" height="430" viewBox="0 0 430 430" fill="none" xmlns="http://www.w3.org/2000/svg">
<g clip-path="url(#clip0_473_355)">
<rect width="430" height="430" fill="black"/>
<g opacity="0.5" clip-path="url(#clip1_473_355)">
<circle cx="31.18" cy="352.18" r="1.18002" fill="white" fill-opacity="0.4"/>
<circle cx="340.367" cy="243.367" r="1.3666" fill="white" fill-opacity="0.4"/>
<circle cx="416.227" cy="220.227" r="1.22655" fill="white" fill-opacity="0.6"/>
<circle cx="182.736" cy="213.736" r="0.736091" fill="white" fill-opacity="0.6"/>
<circle cx="296.901" cy="235.901" r="0.900822" fill="white" fill-opacity="0.6"/>
<circle cx="115.518" cy="206.518" r="0.517694" fill="white" fill-opacity="0.4"/>
<circle cx="381.537" cy="43.537" r="0.536959" fill="white" fill-opacity="0.6"/>
<circle cx="207.384" cy="150.384" r="1.3838" fill="white" fill-opacity="0.5"/>
<circle cx="176.861" cy="429.861" r="0.861338" fill="white" fill-opacity="0.6"/>
<circle cx="225.967" cy="401.967" r="0.966669" fill="white" fill-opacity="0.5"/>
<circle cx="17.7497" cy="253.75" r="0.749702" fill="white" fill-opacity="0.5"/>
<circle cx="359.903" cy="174.903" r="0.902552" fill="white" fill-opacity="0.5"/>
<circle cx="269.124" cy="255.124" r="1.12358" fill="white" fill-opacity="0.5"/>
<circle cx="175.321" cy="185.321" r="1.32055" fill="white" fill-opacity="0.4"/>
<circle cx="37.4284" cy="249.428" r="1.42839" fill="white" fill-opacity="0.5"/>
<circle cx="66.6457" cy="383.646" r="0.645714" fill="white" fill-opacity="0.5"/>
<circle cx="393.086" cy="418.086" r="1.08567" fill="white" fill-opacity="0.6"/>
<circle cx="164.618" cy="332.618" r="0.617733" fill="white" fill-opacity="0.5"/>
<circle cx="403.503" cy="389.503" r="0.50342" fill="white" fill-opacity="0.5"/>
<circle cx="214.539" cy="262.539" r="0.538745" fill="white" fill-opacity="0.5"/>
<circle cx="230.525" cy="133.525" r="0.524912" fill="white" fill-opacity="0.6"/>
<circle cx="388.732" cy="5.73204" r="0.732036" fill="white" fill-opacity="0.3"/>
<circle cx="132.462" cy="325.462" r="1.46153" fill="white" fill-opacity="0.6"/>
<circle cx="398.244" cy="424.244" r="1.24448" fill="white" fill-opacity="0.4"/>
<circle cx="66.959" cy="107.959" r="0.959039" fill="white" fill-opacity="0.5"/>
<circle cx="296.541" cy="413.541" r="0.541051" fill="white" fill-opacity="0.4"/>
<circle cx="381.733" cy="13.7326" r="0.73259" fill="white" fill-opacity="0.4"/>
<circle cx="249.508" cy="155.508" r="0.508167" fill="white" fill-opacity="0.3"/>
<circle cx="124.428" cy="352.428" r="1.42787" fill="white" fill-opacity="0.4"/>
<circle cx="303.43" cy="180.43" r="1.43038" fill="white" fill-opacity="0.5"/>
<circle cx="258.5" cy="70.4999" r="1.49994" fill="white" fill-opacity="0.6"/>
<circle cx="102.276" cy="352.276" r="1.27559" fill="white" fill-opacity="0.4"/>
<circle cx="250.528" cy="402.528" r="0.527992" fill="white" fill-opacity="0.5"/>
<circle cx="98.4377" cy="132.438" r="1.43768" fill="white" fill-opacity="0.4"/>
<circle cx="104.251" cy="26.2514" r="1.25141" fill="white" fill-opacity="0.4"/>
<circle cx="154.831" cy="265.831" r="0.831381" fill="white" fill-opacity="0.5"/>
<circle cx="151.19" cy="173.19" r="1.18981" fill="white" fill-opacity="0.4"/>
<circle cx="17.9122" cy="8.91224" r="0.912243" fill="white" fill-opacity="0.4"/>
<circle cx="295.88" cy="411.88" r="0.880399" fill="white" fill-opacity="0.6"/>
<circle cx="215.515" cy="134.515" r="0.514949" fill="white" fill-opacity="0.5"/>
<circle cx="174.914" cy="391.914" r="0.914186" fill="white" fill-opacity="0.4"/>
<circle cx="347.212" cy="186.212" r="1.21235" fill="white" fill-opacity="0.5"/>
<circle cx="146.905" cy="250.905" r="0.904641" fill="white" fill-opacity="0.5"/>
<circle cx="126.844" cy="118.844" r="0.844371" fill="white" fill-opacity="0.4"/>
<circle cx="223.933" cy="221.933" r="0.932846" fill="white" fill-opacity="0.5"/>
<circle cx="430.023" cy="176.023" r="1.02265" fill="white" fill-opacity="0.5"/>
<circle cx="276.921" cy="115.921" r="0.920972" fill="white" fill-opacity="0.4"/>
<circle cx="16.4952" cy="181.495" r="1.49518" fill="white" fill-opacity="0.4"/>
</g>
<g filter="url(#filter0_f_473_355)">
<path d="M328 222.375C328 193.2 280.981 244.233 257.331 222.375C233.68 200.517 201.065 186.478 165.628 182.902C130.19 179.326 94.3749 186.459 64.9265 202.959C64.9265 202.959 -38.4189 208.503 -47.1065 236.802C-55.7941 265.101 1.32698 330.702 17.758 356.605C34.189 382.507 -71.0813 449.881 94.9512 413.123C128.259 423.636 179.644 515.367 213.12 505.217C246.597 495.068 259.856 383.739 276.709 358.018L189.146 308.676L328 222.375Z" fill="#3598DB" fill-opacity="0.5"/>
</g>
<g filter="url(#filter1_f_473_355)">
<path d="M633 40.3755C633 11.2 585.981 62.2335 562.331 40.3755C538.68 18.5175 506.065 4.47824 470.628 0.902005C435.19 -2.67423 399.375 4.45914 369.927 20.9586C369.927 20.9586 266.581 26.5032 257.894 54.8019C249.206 83.1006 306.327 148.702 322.758 174.605C339.189 200.507 233.919 267.881 399.951 231.123C433.259 241.636 484.644 333.367 518.12 323.217C551.597 313.068 564.856 201.739 581.709 176.018L494.146 126.676L633 40.3755Z" fill="#3598DB" fill-opacity="0.3"/>
</g>
</g>
<defs>
<filter id="filter0_f_473_355" x="-248" y="-18" width="776" height="724" filterUnits="userSpaceOnUse" color-interpolation-filters="sRGB">
<feFlood flood-opacity="0" result="BackgroundImageFix"/>
<feBlend mode="normal" in="SourceGraphic" in2="BackgroundImageFix" result="shape"/>
<feGaussianBlur stdDeviation="100" result="effect1_foregroundBlur_473_355"/>
</filter>
<filter id="filter1_f_473_355" x="57" y="-200" width="776" height="724" filterUnits="userSpaceOnUse" color-interpolation-filters="sRGB">
<feFlood flood-opacity="0" result="BackgroundImageFix"/>
<feBlend mode="normal" in="SourceGraphic" in2="BackgroundImageFix" result="shape"/>
<feGaussianBlur stdDeviation="100" result="effect1_foregroundBlur_473_355"/>
</filter>
<clipPath id="clip0_473_355">
<rect width="430" height="430" fill="white"/>
</clipPath>
<clipPath id="clip1_473_355">
<rect width="430" height="430" fill="white"/>
</clipPath>
</defs>
</svg>
