<svg width="430" height="430" viewBox="0 0 430 430" fill="none" xmlns="http://www.w3.org/2000/svg">
<g opacity="0.5" clip-path="url(#clip0_473_356)">
<circle cx="31.18" cy="352.18" r="1.18002" fill="white" fill-opacity="0.4"/>
<circle cx="340.367" cy="243.367" r="1.3666" fill="white" fill-opacity="0.4"/>
<circle cx="416.227" cy="220.227" r="1.22655" fill="white" fill-opacity="0.6"/>
<circle cx="182.736" cy="213.736" r="0.736091" fill="white" fill-opacity="0.6"/>
<circle cx="296.901" cy="235.901" r="0.900822" fill="white" fill-opacity="0.6"/>
<circle cx="115.518" cy="206.518" r="0.517694" fill="white" fill-opacity="0.4"/>
<circle cx="381.537" cy="43.537" r="0.536959" fill="white" fill-opacity="0.6"/>
<circle cx="207.384" cy="150.384" r="1.3838" fill="white" fill-opacity="0.5"/>
<circle cx="176.861" cy="429.861" r="0.861338" fill="white" fill-opacity="0.6"/>
<circle cx="225.967" cy="401.967" r="0.966669" fill="white" fill-opacity="0.5"/>
<circle cx="17.7497" cy="253.75" r="0.749702" fill="white" fill-opacity="0.5"/>
<circle cx="359.903" cy="174.903" r="0.902552" fill="white" fill-opacity="0.5"/>
<circle cx="269.124" cy="255.124" r="1.12358" fill="white" fill-opacity="0.5"/>
<circle cx="175.321" cy="185.321" r="1.32055" fill="white" fill-opacity="0.4"/>
<circle cx="37.4284" cy="249.428" r="1.42839" fill="white" fill-opacity="0.5"/>
<circle cx="66.6457" cy="383.646" r="0.645714" fill="white" fill-opacity="0.5"/>
<circle cx="393.086" cy="418.086" r="1.08567" fill="white" fill-opacity="0.6"/>
<circle cx="164.618" cy="332.618" r="0.617733" fill="white" fill-opacity="0.5"/>
<circle cx="403.503" cy="389.503" r="0.50342" fill="white" fill-opacity="0.5"/>
<circle cx="214.539" cy="262.539" r="0.538745" fill="white" fill-opacity="0.5"/>
<circle cx="230.525" cy="133.525" r="0.524912" fill="white" fill-opacity="0.6"/>
<circle cx="388.732" cy="5.73204" r="0.732036" fill="white" fill-opacity="0.3"/>
<circle cx="132.462" cy="325.462" r="1.46153" fill="white" fill-opacity="0.6"/>
<circle cx="398.244" cy="424.244" r="1.24448" fill="white" fill-opacity="0.4"/>
<circle cx="66.959" cy="107.959" r="0.959039" fill="white" fill-opacity="0.5"/>
<circle cx="296.541" cy="413.541" r="0.541051" fill="white" fill-opacity="0.4"/>
<circle cx="381.733" cy="13.7326" r="0.73259" fill="white" fill-opacity="0.4"/>
<circle cx="249.508" cy="155.508" r="0.508167" fill="white" fill-opacity="0.3"/>
<circle cx="124.428" cy="352.428" r="1.42787" fill="white" fill-opacity="0.4"/>
<circle cx="303.43" cy="180.43" r="1.43038" fill="white" fill-opacity="0.5"/>
<circle cx="258.5" cy="70.4999" r="1.49994" fill="white" fill-opacity="0.6"/>
<circle cx="102.276" cy="352.276" r="1.27559" fill="white" fill-opacity="0.4"/>
<circle cx="250.528" cy="402.528" r="0.527992" fill="white" fill-opacity="0.5"/>
<circle cx="98.4377" cy="132.438" r="1.43768" fill="white" fill-opacity="0.4"/>
<circle cx="104.251" cy="26.2514" r="1.25141" fill="white" fill-opacity="0.4"/>
<circle cx="154.831" cy="265.831" r="0.831381" fill="white" fill-opacity="0.5"/>
<circle cx="151.19" cy="173.19" r="1.18981" fill="white" fill-opacity="0.4"/>
<circle cx="17.9122" cy="8.91224" r="0.912243" fill="white" fill-opacity="0.4"/>
<circle cx="295.88" cy="411.88" r="0.880399" fill="white" fill-opacity="0.6"/>
<circle cx="215.515" cy="134.515" r="0.514949" fill="white" fill-opacity="0.5"/>
<circle cx="174.914" cy="391.914" r="0.914186" fill="white" fill-opacity="0.4"/>
<circle cx="347.212" cy="186.212" r="1.21235" fill="white" fill-opacity="0.5"/>
<circle cx="146.905" cy="250.905" r="0.904641" fill="white" fill-opacity="0.5"/>
<circle cx="126.844" cy="118.844" r="0.844371" fill="white" fill-opacity="0.4"/>
<circle cx="223.933" cy="221.933" r="0.932846" fill="white" fill-opacity="0.5"/>
<circle cx="430.023" cy="176.023" r="1.02265" fill="white" fill-opacity="0.5"/>
<circle cx="276.921" cy="115.921" r="0.920972" fill="white" fill-opacity="0.4"/>
<circle cx="16.4952" cy="181.495" r="1.49518" fill="white" fill-opacity="0.4"/>
</g>
<defs>
<clipPath id="clip0_473_356">
<rect width="430" height="430" fill="white"/>
</clipPath>
</defs>
</svg>
